<?xml version="1.0" encoding="utf-8"?>
<!-- Generator: Adobe Illustrator 22.0.1, SVG Export Plug-In . SVG Version: 6.00 Build 0)  -->
<svg version="1.1" id="Layer_1" xmlns="http://www.w3.org/2000/svg" xmlns:xlink="http://www.w3.org/1999/xlink" x="0px" y="0px"
	 viewBox="0 0 108.8 106.1" style="enable-background:new 0 0 108.8 106.1;" xml:space="preserve">
<style type="text/css">
	.st0{fill:#E8F0F6;}
	.st1{fill:#d26a11;}
</style>
<g>
	<g>
		<path class="st0" d="M68.8,23.7c3.8-3.8,11-4.5,15.7,0.3c4.3,4.4,4.5,11.3,0.3,15.4C78.4,35.3,73.2,30.1,68.8,23.7z"/>
	</g>
	<path class="st0" d="M64.7,7c0,0,0.2-0.1,0.6-0.2c0.4-0.2,1-0.3,1.8-0.3c0.4,0,0.8,0,1.3,0c0.5,0.1,1,0.1,1.5,0.2
		c1.1,0.2,2.3,0.4,3.6,0.9c1.3,0.4,2.6,1,4,1.7s2.8,1.5,4.2,2.4c2.8,1.9,5.7,4.1,8.3,6.6c2.6,2.5,5,5.3,6.9,8.1
		c1,1.4,1.8,2.8,2.5,4.2c0.7,1.4,1.3,2.8,1.7,4.1c0.2,0.7,0.4,1.3,0.5,1.9s0.2,1.2,0.3,1.7c0.1,0.5,0.1,1.1,0.1,1.5
		c0,0.5,0,0.9-0.1,1.3c-0.1,0.8-0.2,1.4-0.4,1.8c-0.1,0.4-0.2,0.6-0.2,0.6s0-0.2,0.1-0.6c0-0.2,0.1-0.5,0.1-0.8s0-0.7,0.1-1
		c0-0.4,0-0.8,0-1.3s-0.1-1-0.2-1.5s-0.2-1.1-0.4-1.7c-0.1-0.6-0.4-1.2-0.6-1.8c-0.4-1.2-1.1-2.5-1.8-3.9c-0.8-1.3-1.6-2.7-2.6-4
		c-1.9-2.7-4.3-5.4-6.9-7.8c-2.5-2.5-5.3-4.7-8.1-6.6c-2.8-1.9-5.5-3.4-8-4.4c-1.2-0.5-2.4-0.9-3.5-1.1c-0.5-0.1-1-0.2-1.5-0.3
		c-0.5,0-0.9-0.1-1.3-0.1c-0.8,0-1.4,0.1-1.8,0.2C64.9,7,64.7,7,64.7,7z"/>
	<path class="st0" d="M108,35.2c-2-7-6.1-12.8-10.9-18.1C92,11.5,86.2,6.6,79.4,3.2c-3.9-2-8.1-3.5-12.6-3.2c-3.5,0.2-7.1,2.4-8.1,6
		c-1,3.7-0.2,7.1,0.6,9.8c0.1,0.2-0.3,1.1-0.4,1.3c-0.1,0.4-0.3,0.8-0.4,1.3c-0.3,0.8-0.6,1.6-0.9,2.5c-1.7,4.4-3.8,8.6-6.2,12.7
		c-1.2,2-2.4,3.9-3.8,5.8c-0.7,0.9-8.3,11-8.3,11C37.1,59.1,49.8,71.9,59.5,69c0,0,6.7-5.4,9.1-7.2c7.7-5.6,18.5-10,21-11.6
		c2.8-1.8,5.4-0.3,8.1-0.2c0.1,0,0.2,0.1,0.3,0.1c4.2,0.2,7.9-0.9,9.8-5.1C109.4,41.7,108.9,38.4,108,35.2z M88.2,47.7
		c-0.5-0.2-1.2-0.5-1.9-0.8c-0.7-0.3-1.5-0.8-2.4-1.2c-0.4-0.2-0.9-0.5-1.4-0.7c-0.5-0.3-0.9-0.6-1.4-0.9c-1-0.6-2-1.2-3-2
		s-2-1.5-3-2.4s-2-1.7-2.9-2.7c-1-0.9-1.8-1.9-2.7-2.9c-0.9-1-1.6-2-2.4-3c-1.5-2-2.8-3.9-3.8-5.7c-1-1.7-1.7-3.2-2.2-4.3
		c-0.5-1.1-0.7-1.7-0.7-1.7s0.4,0.6,1,1.5c0.6,1,1.6,2.3,2.7,3.9c0.6,0.8,1.2,1.6,1.9,2.5c0.7,0.9,1.5,1.8,2.2,2.7
		c0.8,0.9,1.6,1.9,2.5,2.8c0.9,0.9,1.7,1.9,2.7,2.8c0.9,0.9,1.8,1.8,2.8,2.7c0.9,0.9,1.9,1.7,2.8,2.5s1.9,1.5,2.8,2.2
		s1.7,1.3,2.6,1.8c0.8,0.6,1.6,1.1,2.2,1.5c0.7,0.4,1.3,0.8,1.8,1.1c1,0.6,1.5,1,1.5,1S89.3,48.1,88.2,47.7z M99.4,46
		c-3.8,0.1-7.3-1.3-10.5-3c-6.1-3.2-11.4-7.4-16-12.5c-3.3-3.7-6.2-7.6-8.4-12c-1.4-2.9-2.6-5.9-2.5-9.2c0.1-3.5,2-5.4,5.4-5.5
		s6.5,1,9.4,2.4c5.5,2.6,10.3,6.2,13.7,9.7c5.8,5.7,10.1,11,12.7,17.5c0.9,2.2,1.4,4.6,1.6,7C105.2,43.9,103,46,99.4,46z"/>
	<path class="st0" d="M31.3,60.1c-0.6,0.7-1.2,1.4-1.8,2c-2.1,2.2-2.4,4.9-1.8,7.7c1.1,4.8,4.1,8.2,8.2,10.5c3.3,1.9,7,2.4,10.4,0.1
		c1.2-0.8,2.2-1.7,3.2-2.7C43.5,77.1,30.9,66.3,31.3,60.1z"/>
</g>
<g>
	<path class="st1" d="M52.9,76.5c-0.1,0-0.3,0-0.4,0C43,75.1,33.8,66.1,32.7,57.2c-0.2-1.5,0.9-2.9,2.4-3.1c1.5-0.2,2.9,0.9,3.1,2.4
		C39,63,46.4,70,53.4,71.1c1.5,0.2,2.5,1.6,2.3,3.1C55.5,75.5,54.3,76.5,52.9,76.5z"/>
</g>
<g>
	<path class="st1" d="M52.8,106.1C23.7,106.1,0,82.4,0,53.3c0-24.8,16.9-46,41-51.5c3.5-0.8,7.1,1.4,7.9,5s-1.4,7.1-5,7.9
		c-18.1,4.1-30.7,20-30.7,38.6c0,21.9,17.8,39.6,39.6,39.6c18,0,33.7-12.1,38.3-29.5c0.9-3.5,4.5-5.6,8.1-4.7
		c3.5,0.9,5.6,4.5,4.7,8.1C97.7,89.9,76.7,106.1,52.8,106.1z"/>
</g>
</svg>
